<?xml version="1.0" encoding="utf-8"?>
<svg version="1.1" id="excavator" xmlns="http://www.w3.org/2000/svg" xmlns:xlink="http://www.w3.org/1999/xlink" x="0px" y="0px"
	 width="201.167px" height="99.309px" viewBox="0 0 201.167 99.309" enable-background="new 0 0 201.167 99.309"
	 xml:space="preserve">
<path fill="currentColor" d="M97.433,74.505c-1.629,0-2.951,1.321-2.951,2.952c0,1.845-1.5,3.348-3.347,3.348
	c-1.846,0-3.346-1.502-3.346-3.348c0-1.845,1.5-3.345,3.346-3.345c1.632,0,2.95-1.323,2.95-2.954s-1.318-2.952-2.95-2.952
	c-5.101,0-9.252,4.149-9.252,9.251c0,5.103,4.152,9.251,9.252,9.251c5.102,0,9.251-4.148,9.251-9.251
	C100.386,75.827,99.063,74.505,97.433,74.505z"/>
<path fill="currentColor" d="M150.974,80.805c-0.775,0-1.538,0.314-2.088,0.866c-0.551,0.547-0.865,1.31-0.865,2.086
	c0,0.773,0.314,1.54,0.865,2.085c0.55,0.552,1.313,0.866,2.088,0.866c0.774,0,1.537-0.313,2.088-0.866
	c0.549-0.546,0.865-1.312,0.865-2.085c0-0.78-0.316-1.54-0.865-2.086C152.511,81.12,151.749,80.805,150.974,80.805z"/>
<path fill="currentColor" d="M198.213,93.402h-0.591l-2.399-16.807c-0.427-2.986-3.023-5.238-6.038-5.238h-0.419
	c-5.236,0-9.725,3.263-11.537,7.861l-17.301-9.611l-1.492-5.96c-1.154-4.625-4.922-8.218-9.599-9.153l-10.657-2.131V35.976
	c0-0.896,0.35-1.733,0.98-2.366l4.452-4.455c1.15-1.15,1.15-3.021,0-4.174c-1.152-1.153-3.024-1.153-4.178,0l-4.451,4.453
	c-1.751,1.748-2.71,4.072-2.71,6.542v15.206l-7.233-1.446l-4.943-19.779c1.333-0.283,2.337-1.469,2.337-2.887
	c0-1.632-1.323-2.954-2.953-2.954H86.878c-4.418,0-8.236,3.149-9.08,7.486l-7.121,36.604h-5.632L56.192,35.74
	c-0.094-0.345-0.252-0.67-0.461-0.959L32.514,2.856c-1.999-2.748-5.654-3.639-8.694-2.119c-1.865,0.935-3.134,2.628-3.608,4.536
	c-0.032,0.101-0.061,0.206-0.083,0.313L6.537,72.835C2.649,74.931,0,79.04,0,83.758c0,6.838,5.563,12.399,12.4,12.399h9.393
	c0.018,0,0.035,0,0.053,0s0.033,0,0.051,0h6.252c1.631,0,2.953-1.321,2.953-2.951s-1.322-2.954-2.953-2.954h-3.797l-2.301-13.798
	c-0.491-2.954-3.022-5.097-6.019-5.097H13.89l17.007-36.421l16.564,40.491c0.001,0.004,0.003,0.007,0.004,0.011
	c-0.145,0.651-0.224,1.327-0.224,2.021v3.149c0,5.101,4.149,9.252,9.251,9.252h3.345v3.543h-3.345c-1.631,0-2.953,1.322-2.953,2.952
	c0,1.631,1.322,2.953,2.953,2.953h12.597c1.631,0,2.953-1.322,2.953-2.953c0-1.63-1.322-2.952-2.953-2.952h-3.347v-3.543h6.496
	c0.291,0,0.569-0.044,0.835-0.122c3.938,5.772,10.564,9.569,18.063,9.569s14.126-3.797,18.063-9.569
	c0.263,0.078,0.543,0.122,0.832,0.122h15.75c5.098,0,9.25-4.151,9.25-9.252v-0.196h0.762c-0.238,1.078-0.368,2.196-0.368,3.347
	c0,8.574,6.976,15.549,15.551,15.549c8.571,0,15.549-6.976,15.549-15.549c0-1.393-0.188-2.741-0.532-4.026l10.373,5.763v1.412
	c0,6.837,5.563,12.4,12.402,12.4h6.249c0.016,0,0.028,0.001,0.046,0.001c0.017,0,0.031,0,0.048-0.001h3.106
	c1.631,0,2.951-1.322,2.951-2.953C201.166,94.724,199.846,93.402,198.213,93.402z M152.708,65.078l0.152,0.604l-12.263-6.813
	l7.082,1.417C150.128,60.774,152.103,62.658,152.708,65.078z M83.594,32.728c0.306-1.569,1.687-2.708,3.284-2.708h27.146
	l5.648,22.605v15.58h-8.752c-2.646-5.633-7.622-9.957-13.686-11.723V36.517c0-1.631-1.319-2.952-2.953-2.952
	c-1.63,0-2.951,1.321-2.951,2.952v19.098c-0.065,0-0.13-0.004-0.197-0.004c-4.777,0-9.199,1.544-12.801,4.159L83.594,32.728z
	 M16.227,77.427l2.137,12.826h-5.962c-3.582,0-6.495-2.914-6.495-6.495c0-3.583,2.913-6.497,6.495-6.497h3.631
	C16.127,77.261,16.21,77.33,16.227,77.427z M17.048,50.635l6.704-33.164l4.102,10.027L17.048,50.635z M25.976,7.311
	c-0.073-0.176-0.09-0.364-0.062-0.541l0.003-0.017c0.002-0.008,0.002-0.015,0.003-0.021c0.062-0.301,0.251-0.57,0.54-0.714
	c0.446-0.223,0.984-0.092,1.276,0.311l22.899,31.485l8.288,30.393h-2.433c-1.842,0-3.559,0.542-5.003,1.476L25.976,7.311z
	 M65.742,83.954v-3.346c0-1.629-1.322-2.952-2.952-2.952c-1.631,0-2.954,1.323-2.954,2.952v3.346h-3.345
	c-1.846,0-3.347-1.501-3.347-3.346v-3.149c0-1.845,1.501-3.345,3.347-3.345h13.051c-0.169,1.091-0.257,2.207-0.257,3.345
	c0,2.262,0.345,4.443,0.986,6.495H65.742z M91.134,93.402c-8.792,0-15.942-7.152-15.942-15.944c0-1.076,0.108-2.129,0.313-3.146
	l0.018-0.09c1.5-7.246,7.93-12.707,15.612-12.707c8.792,0,15.943,7.151,15.943,15.942C107.078,86.25,99.926,93.402,91.134,93.402z
	 M129.125,80.607c0,1.845-1.503,3.346-3.346,3.346h-13.781c0.64-2.052,0.986-4.233,0.986-6.495c0-1.139-0.09-2.254-0.256-3.345
	h13.051c1.843,0,3.346,1.5,3.346,3.345V80.607L129.125,80.607z M150.974,93.402c-5.32,0-9.647-4.326-9.647-9.645
	c0-5.319,4.327-9.645,9.647-9.645c5.314,0,9.645,4.325,9.645,9.645C160.618,89.076,156.289,93.402,150.974,93.402z M138.48,74.511
	c-0.035-0.002-0.069-0.005-0.104-0.005h-3.832c-1.238-3.657-4.695-6.299-8.765-6.299h-0.198V57.282l20.874,11.598
	C143.231,69.86,140.445,71.863,138.48,74.511z M188.766,93.402c-3.583,0-6.494-2.914-6.494-6.496v-3.112c0-0.006,0-0.013,0-0.018
	v-0.02c0-3.583,2.911-6.497,6.494-6.497h0.419c0.096,0,0.178,0.072,0.193,0.17l2.282,15.97L188.766,93.402L188.766,93.402z"/>
</svg>
