<?xml version="1.0" encoding="UTF-8"?>
<svg xmlns="http://www.w3.org/2000/svg" xmlns:xlink="http://www.w3.org/1999/xlink" id="image-jar" x="0px" y="0px" width="110.006px" height="96px" viewBox="0 0 110.006 96" xml:space="preserve">
<path fill="currentColor" d="M109.835,55.647c-1.084-6.095-7.306-10.518-11.577-12.886c1.872-1.935,2.985-4.561,2.985-7.381  c0-5.839-4.729-10.59-10.54-10.59c-1.243,0-2.451,0.229-3.589,0.646c-1.022-9.343-2.122-19.681-2.141-20.766  c0-1.404-0.5-4.67-5.131-4.67h-49.68c-4.63,0-5.13,3.266-5.13,4.661c-0.018,1.09-1.114,11.399-2.14,20.775  c-1.138-0.417-2.346-0.646-3.59-0.646c-5.812,0-10.54,4.755-10.54,10.6c0,2.82,1.111,5.441,2.978,7.372  C7.489,45.121,1.256,49.546,0.17,55.647c-0.79,4.436,1.164,8.788,5.806,12.937c15.475,13.838,27.967,22.901,30.122,24.232L36.391,93  c2.112,1.336,4.741,3,17.942,3h1.34c13.201,0,15.829-1.664,17.941-3l0.292-0.184c2.155-1.331,14.647-10.395,30.122-24.23  C108.671,64.436,110.625,60.083,109.835,55.647z M90.703,29.79c3.055,0,5.54,2.508,5.54,5.59c0,2.13-1.201,4.042-3.049,4.985  c-3.142-1.459-5-4.014-5.247-7.382c-0.081-0.73-0.166-1.496-0.254-2.284C88.586,30.109,89.623,29.79,90.703,29.79z M30.163,5h49.68  c0.052,0,0.1,0,0.144,0.001c0.192,3.331,2.511,24.217,2.983,28.44c0.123,1.685,0.525,3.256,1.171,4.688H56.153h-2.3H41.29h-0.001  H25.874c0.638-1.411,1.034-2.95,1.153-4.593c0.481-4.314,2.8-25.204,2.993-28.535C30.064,5,30.112,5,30.163,5z M19.303,29.79  c1.083,0,2.12,0.32,3.01,0.913c-0.09,0.819-0.179,1.616-0.263,2.375c-0.238,3.267-2.078,5.806-5.244,7.288  c-1.845-0.936-3.043-2.845-3.043-4.975C13.763,32.302,16.248,29.79,19.303,29.79z M100.696,64.857  C85.683,78.281,73.27,87.334,71.278,88.563l-0.338,0.213C69.457,89.714,67.425,91,55.673,91h-1.34  c-11.752,0-13.784-1.286-15.268-2.225l-0.338-0.213c-1.99-1.229-14.405-10.281-29.417-23.706c-3.26-2.913-4.679-5.716-4.217-8.327  c0.95-5.369,9.348-9.808,12.431-11.038c1.173-0.424,2.245-0.955,3.222-1.571c-0.182,0.173-0.363,0.344-0.528,0.5  c-3.002,2.828-8.025,7.562-5.948,13.632c1.362,3.965,4.312,6.786,6.682,9.053c1.027,0.982,1.997,1.91,2.628,2.734  c0.492,0.643,1.235,0.98,1.987,0.98c0.53,0,1.064-0.168,1.518-0.516c1.096-0.839,1.304-2.408,0.465-3.504  c-0.867-1.132-1.972-2.189-3.143-3.309c-2.184-2.088-4.441-4.248-5.407-7.062c-0.956-2.792,1.54-5.442,4.647-8.372  c1.331-1.253,2.381-2.244,2.88-3.336l0.731-1.593H37.28c-0.148,0.261-0.326,0.56-0.515,0.873c-1.631,2.71-4.667,7.755-2.718,13.985  c0.755,2.41,1.271,4.228,1.77,5.986c0.475,1.674,0.924,3.255,1.514,5.106c0.339,1.063,1.322,1.74,2.381,1.74  c0.251,0,0.508-0.037,0.76-0.118c1.315-0.419,2.042-1.825,1.622-3.142c-0.566-1.774-1.004-3.318-1.468-4.952  c-0.484-1.706-1.033-3.641-1.808-6.114c-1.278-4.084,0.75-7.453,2.23-9.913c0.417-0.692,0.776-1.29,1.036-1.858l0.731-1.593h9.697  v25.19c0,1.381,1.119,2.5,2.5,2.5s2.5-1.119,2.5-2.5V43.13h9.677l0.729,1.588c0.262,0.573,0.622,1.171,1.038,1.863  c1.481,2.46,3.51,5.828,2.231,9.912c-0.774,2.472-1.323,4.405-1.807,6.11c-0.464,1.636-0.902,3.181-1.47,4.957  c-0.42,1.314,0.307,2.722,1.622,3.142c0.253,0.081,0.509,0.118,0.761,0.118c1.059,0,2.042-0.678,2.381-1.74  c0.591-1.854,1.04-3.436,1.516-5.111c0.499-1.757,1.015-3.573,1.769-5.982c1.95-6.229-1.087-11.274-2.719-13.984  c-0.188-0.313-0.366-0.611-0.515-0.873H82.75l0.729,1.587c0.501,1.098,1.552,2.088,2.882,3.342c3.108,2.929,5.603,5.58,4.648,8.37  c-0.967,2.815-3.226,4.976-5.409,7.064c-1.17,1.118-2.275,2.176-3.142,3.307c-0.84,1.097-0.632,2.665,0.464,3.505  c0.454,0.348,0.988,0.516,1.519,0.516c0.751,0,1.494-0.337,1.986-0.979c0.632-0.825,1.602-1.753,2.629-2.734  c2.37-2.267,5.32-5.089,6.683-9.057c2.077-6.067-2.947-10.801-5.948-13.629c-0.156-0.147-0.327-0.308-0.498-0.471  c0.949,0.595,1.988,1.106,3.118,1.514c3.155,1.257,11.554,5.696,12.504,11.065C105.376,59.141,103.957,61.943,100.696,64.857z"></path>
<path fill="currentColor" d="M74.983,11.68h-4.681c-1.381,0-2.5,1.119-2.5,2.5s1.119,2.5,2.5,2.5h4.681c1.381,0,2.5-1.119,2.5-2.5  S76.364,11.68,74.983,11.68z"></path>
<path fill="currentColor" d="M57.343,11.68h-4.68c-1.381,0-2.5,1.119-2.5,2.5s1.119,2.5,2.5,2.5h4.68c1.381,0,2.5-1.119,2.5-2.5  S58.724,11.68,57.343,11.68z"></path>
<path fill="currentColor" d="M39.703,11.68h-4.68c-1.381,0-2.5,1.119-2.5,2.5s1.119,2.5,2.5,2.5h4.68c1.381,0,2.5-1.119,2.5-2.5  S41.084,11.68,39.703,11.68z"></path>
<path fill="currentColor" d="M33.123,11.07h10.45c1.381,0,2.5-1.119,2.5-2.5c0-1.38-1.119-2.5-2.5-2.5h-10.45c-1.381,0-2.5,1.12-2.5,2.5  C30.623,9.951,31.742,11.07,33.123,11.07z"></path>
<path fill="currentColor" d="M66.503,11.07h10.45c1.381,0,2.5-1.119,2.5-2.5c0-1.38-1.119-2.5-2.5-2.5h-10.45c-1.381,0-2.5,1.12-2.5,2.5  C64.003,9.951,65.122,11.07,66.503,11.07z"></path>
<path fill="currentColor" d="M49.783,11.07h10.451c1.381,0,2.5-1.119,2.5-2.5c0-1.38-1.119-2.5-2.5-2.5H49.783c-1.381,0-2.5,1.12-2.5,2.5  C47.283,9.951,48.402,11.07,49.783,11.07z"></path>
<path fill="currentColor" d="M55.073,17.29h-0.14c-1.381,0-2.5,1.119-2.5,2.5s1.119,2.5,2.5,2.5h0.14c1.381,0,2.5-1.119,2.5-2.5  S56.454,17.29,55.073,17.29z"></path>
<path fill="currentColor" d="M37.363,17.29h-0.13c-1.381,0-2.5,1.119-2.5,2.5s1.119,2.5,2.5,2.5h0.13c1.381,0,2.5-1.119,2.5-2.5  S38.744,17.29,37.363,17.29z"></path>
<path fill="currentColor" d="M72.772,17.29h-0.129c-1.381,0-2.5,1.119-2.5,2.5s1.119,2.5,2.5,2.5h0.129c1.381,0,2.5-1.119,2.5-2.5  S74.153,17.29,72.772,17.29z"></path>
</svg>
