<?xml version="1.0" encoding="utf-8"?>
<!-- Generator: Adobe Illustrator 15.1.0, SVG Export Plug-In . SVG Version: 6.00 Build 0)  -->
<!DOCTYPE svg PUBLIC "-//W3C//DTD SVG 1.1//EN" "http://www.w3.org/Graphics/SVG/1.1/DTD/svg11.dtd">
<svg version="1.1" id="Layer_1" xmlns="http://www.w3.org/2000/svg" xmlns:xlink="http://www.w3.org/1999/xlink" x="0px" y="0px"
	 width="377.999px" height="310px" viewBox="102.5 574.167 377.999 310" enable-background="new 102.5 574.167 377.999 310"
	 xml:space="preserve">
<path id="circle--red--left" fill="#C9491A" d="M107.12,728.68c0,29.271,23.727,52.999,53,52.999s53-23.728,53-52.999
	s-23.727-53.001-53-53.001S107.12,699.409,107.12,728.68"/>
<path id="circle--red--right" fill="#C9491A" d="M369.88,728.62c0,29.274,23.725,52.998,52.999,52.998
	c29.273,0,53.002-23.724,53.002-52.998s-23.729-53-53.002-53C393.605,675.62,369.88,699.345,369.88,728.62"/>
<path fill="#F4B11D" d="M423.707,818.678c-49.707,0-89.997-40.289-89.997-89.998c0-49.705,40.29-90,89.997-90
	c0.254,0,0.506,0.008,0.758,0.01c-29.511-38.779-77.556-64.022-131.822-64.022c-54.265,0-102.304,25.245-131.816,64.021
	c49.381,0.381,89.293,40.523,89.293,89.992c0,49.551-40.042,89.742-89.535,89.992c29.492,38.953,77.648,64.332,132.058,64.332
	c54.409,0,102.546-25.387,132.037-64.338C424.356,818.67,424.033,818.678,423.707,818.678z"/>
</svg>
