<?xml version="1.0" encoding="utf-8"?>
<svg version="1.1" xmlns="http://www.w3.org/2000/svg" xmlns:xlink="http://www.w3.org/1999/xlink" x="0px" y="0px"
	 width="800.001px" height="308.335px" viewBox="0 145.832 800.001 308.335" enable-background="new 0 145.832 800.001 308.335"
	 xml:space="preserve">
<path id="labrys--yellow" fill="#F4B11D" d="M315.938,375.471c-44.713,0-80.96-34.39-80.96-76.812
	c0-42.421,36.247-76.812,80.96-76.812c2.457,0,4.884,0.121,7.284,0.325c-28.207-45.668-80.469-76.341-140.289-76.341
	c-60.351,0-113.015,31.214-141.041,77.554c1.831-0.117,3.67-0.198,5.53-0.198c44.715,0,80.963,34.391,80.963,76.813
	s-36.248,76.811-80.963,76.811c-1.861,0-3.701-0.081-5.531-0.197c28.025,46.339,80.691,77.554,141.042,77.554
	c61.053,0,114.23-31.95,142.001-79.181C321.979,375.297,318.98,375.471,315.938,375.471"/>
<path id="circle--red--left" fill="#C9491A" d="M0,299.843c0,27.841,22.569,50.409,50.409,50.409
	c27.841,0,50.41-22.568,50.41-50.409c0-27.84-22.569-50.409-50.41-50.409C22.569,249.434,0,272.004,0,299.843"/>
<path id="circle--red--right" fill="#C9491A" d="M702.172,299.782c0,27.016,21.898,48.914,48.912,48.914
	c27.017,0,48.917-21.898,48.917-48.914c0-27.015-21.9-48.914-48.917-48.914C724.07,250.868,702.172,272.768,702.172,299.782"/>
<path id="letter-B" d="M453.687,299.958c4.364,0.8,7.875,2.107,10.532,3.921c2.658,1.814,4.51,3.822,5.556,6.021
	c1.044,2.198,1.567,4.528,1.567,6.988c0,6.767-2.489,11.118-7.468,13.056s-10.064,2.906-15.259,2.906
	c-0.492,0-1.383-0.022-2.673-0.069c-1.291-0.046-2.59-0.084-3.896-0.115c-1.308-0.031-2.305-0.055-2.997-0.069
	c-0.69-0.016-1.467-0.023-2.327-0.023c-1.844,0-4.84,0.123-8.988,0.369v-1.752c1.229-0.122,2.212-0.284,2.95-0.484
	c0.737-0.199,1.384-0.56,1.937-1.083c0.554-0.522,0.906-1.229,1.061-2.12c0.308-1.321,0.546-4.072,0.716-8.252
	c0.167-4.18,0.283-8.429,0.345-12.746c0.062-4.318,0.093-7.659,0.093-10.026c0-2.551-0.031-5.024-0.093-7.422
	s-0.224-4.749-0.483-7.053c-0.261-2.304-0.607-3.842-1.037-4.61c-0.431-0.859-1.075-1.476-1.937-1.844
	c-0.86-0.368-2.014-0.661-3.457-0.876v-1.751c3.258,0.246,6.131,0.368,8.621,0.368c0.583,0,2.72-0.122,6.407-0.368
	c3.934-0.276,6.007-0.415,6.224-0.415c2.98,0,5.7,0.554,8.159,1.658c2.457,1.105,4.432,2.756,5.924,4.951
	c1.489,2.195,2.235,4.752,2.235,7.669c0,3.102-0.953,5.781-2.858,8.038C460.633,297.08,457.681,298.791,453.687,299.958z
	 M440.687,293.943v5.671c0.676-0.062,1.459-0.093,2.351-0.093c2.767-0.062,5.194-0.308,7.284-0.737
	c2.089-0.43,3.949-1.49,5.578-3.181c1.628-1.69,2.443-4.287,2.443-7.791c0-2.766-0.576-5.117-1.729-7.052
	c-1.153-1.937-2.697-3.411-4.633-4.426c-1.936-1.014-4.011-1.521-6.224-1.521c-2.12,0-3.41,0.246-3.871,0.737
	c-0.4,0.339-0.699,2.682-0.9,7.03C440.787,286.928,440.687,290.716,440.687,293.943z M440.687,301.78v18.07
	c0,3.135,0.061,5.347,0.185,6.638c0.122,1.29,0.415,2.252,0.876,2.882c0.461,0.629,1.151,1.006,2.074,1.13
	c0.922,0.123,2.55,0.185,4.886,0.185c2.489,0,4.894-0.392,7.214-1.175c2.321-0.784,4.28-2.159,5.879-4.126
	c1.598-1.967,2.397-4.61,2.397-7.93c0-1.844-0.354-3.734-1.061-5.671c-0.707-1.937-1.768-3.664-3.181-5.187
	c-1.414-1.521-3.281-2.766-5.602-3.733c-2.32-0.969-5.017-1.453-8.09-1.453c-0.737,0-1.621,0.031-2.65,0.093
	C442.584,301.565,441.609,301.656,440.687,301.78z"/>
<path id="letter-R" d="M516.173,312.013l-5.301-7.56c-4.057,0-7.422-0.2-10.096-0.6l-0.093,11.063c0,2.336,0.069,4.948,0.207,7.837
	c0.14,2.889,0.453,4.933,0.945,6.131c0.245,0.737,0.669,1.261,1.268,1.567c0.601,0.308,1.944,0.737,4.034,1.291
	c0.677,0.153,1.015,0.399,1.015,0.737c0,0.676-0.216,1.014-0.646,1.014c-0.492,0-1.783-0.153-3.872-0.461
	c-2.644-0.246-4.257-0.368-4.84-0.368c-2.982,0-6.055,0.215-9.22,0.646c-0.216,0-0.478,0.03-0.783,0.093
	c-0.615,0-0.923-0.276-0.923-0.83c0-0.307,0.115-0.537,0.347-0.69c0.23-0.154,0.744-0.338,1.544-0.554
	c1.383-0.368,2.381-0.929,2.996-1.683c0.613-0.753,1.061-2.228,1.337-4.425s0.43-5.724,0.461-10.58v-20.375
	c0.062-4.979,0.038-8.635-0.068-10.972c-0.108-2.335-0.361-4.048-0.762-5.14c-0.399-1.091-1.014-1.821-1.844-2.189
	c-0.829-0.369-2.136-0.661-3.918-0.876l0.185-1.521c1.628,0.063,3.703,0.093,6.224,0.093c0.737,0,3.417-0.192,8.045-0.577
	c4.624-0.384,7.552-0.576,8.78-0.576c3.228,0,6.131,0.446,8.713,1.337c2.581,0.892,4.74,2.074,6.478,3.549
	c1.735,1.476,3.049,3.158,3.94,5.048c0.892,1.891,1.337,3.834,1.337,5.832c0,2.059-0.461,4.056-1.383,5.992
	s-2.321,3.696-4.195,5.278c-1.875,1.582-4.287,2.928-7.237,4.033l2.079,3.135c2.896,4.363,5.3,7.89,7.21,10.579
	c1.91,2.69,3.961,5.278,6.156,7.768c2.193,2.49,4.433,4.511,6.718,6.063s4.518,2.421,6.695,2.604
	c0.583,0.093,0.874,0.398,0.874,0.922c0,0.276-0.138,0.484-0.414,0.623s-0.938,0.208-1.982,0.208c-2.982,0-5.854-0.653-8.621-1.96
	c-2.766-1.307-5.393-3.065-7.883-5.277c-2.49-2.213-4.702-4.533-6.638-6.962C521.105,318.852,518.814,315.763,516.173,312.013z
	 M501.052,301.18c2.059,0.492,4.548,0.737,7.469,0.737c1.475,0,3.033-0.107,4.679-0.322c1.644-0.214,3.333-0.69,5.071-1.427
	c1.735-0.736,3.233-1.979,4.494-3.728c1.26-1.749,1.891-4.096,1.891-7.042c0-2.086-0.547-4.271-1.638-6.557
	s-2.773-4.249-5.047-5.891c-2.274-1.643-5.041-2.463-8.298-2.463c-1.353,0-2.881,0.177-4.586,0.529
	c-1.706,0.353-2.697,0.912-2.974,1.68C501.405,278.201,501.052,286.363,501.052,301.18z"/>
<path id="letter-Y" d="M546.932,274.996l-0.276-1.612h4.563c2.243,0.092,3.896,0.161,4.956,0.208
	c1.062,0.046,1.667,0.069,1.82,0.069c0.86,0,2.013-0.03,3.457-0.093c1.444-0.062,3.181-0.123,5.21-0.185l2.212,0.092l-0.229,1.752
	c-2.152,0.188-3.611,0.376-4.379,0.563c-0.77,0.188-1.152,0.609-1.152,1.265c0,0.687,1.146,2.675,3.436,5.964
	c2.287,3.288,4.931,6.899,7.929,10.833c2.995,3.934,5.124,6.637,6.384,8.112c0.922-1.26,2.305-3.242,4.149-5.946l3.503-5.255
	c1.229-1.781,2.604-4.033,4.126-6.753c1.521-2.72,2.28-4.639,2.28-5.756c0-2.232-2.073-3.241-6.223-3.026l0.185-1.752l3.872,0.186
	c0.308,0,1.32,0.03,3.042,0.092c1.721,0.063,2.72,0.093,2.996,0.093c0.461,0,1.967-0.03,4.518-0.093
	c2.55-0.062,4.057-0.092,4.518-0.092l-0.093,1.89c-2.028,0.093-3.673,0.438-4.932,1.037c-1.261,0.6-2.705,1.884-4.333,3.851
	c-1.629,1.966-3.857,5.086-6.685,9.357l-5.07,7.651l-4.84,7.56l0.185,14.937c0,3.688,0.053,6.138,0.162,7.353
	c0.106,1.214,0.359,2.021,0.76,2.42c0.398,0.4,1.198,0.754,2.397,1.061c1.045,0.216,2.674,0.63,4.886,1.245l-0.092,1.198
	c0.245,0-0.907-0.093-3.457-0.276l-2.858-0.185c-1.23-0.124-2.229-0.186-2.996-0.186h-1.982c-0.461,0-2.321,0.123-5.578,0.369
	c-2.613,0.308-4.503,0.461-5.671,0.461v-1.476c3.196-0.122,5.332-0.753,6.408-1.891c0.491-0.43,0.829-1.014,1.014-1.751
	c0.186-0.737,0.314-2.382,0.393-4.933c0.076-2.551,0.115-6.623,0.115-12.216c0-3.073-0.031-4.963-0.093-5.671l-3.78-5.578
	c-1.875-2.673-3.658-5.146-5.347-7.422c-1.691-2.273-3.059-4.01-4.104-5.209c-3.288-4.149-5.639-6.984-7.052-8.505
	c-1.414-1.521-2.628-2.505-3.642-2.951C550.529,275.359,548.991,275.089,546.932,274.996z"/>
<path id="letter-S" d="M622.385,332.758l-1.89-0.093c0.062-4.271-0.783-9.403-2.535-15.396c0.737-0.215,1.229-0.338,1.476-0.369
	c0.737,2.306,1.314,3.973,1.729,5.002c0.416,1.029,0.952,1.937,1.614,2.72c0.659,0.783,1.573,1.483,2.741,2.097
	c1.997,1.046,4.302,1.983,6.915,2.813c2.612,0.83,5.424,1.244,8.436,1.244c2.612,0,5.232-0.646,7.859-1.936
	c2.628-1.291,3.942-4.134,3.942-8.528c0-2.213-0.385-4.118-1.152-5.716c-0.77-1.598-1.775-2.889-3.02-3.872
	c-1.245-0.983-2.69-1.858-4.332-2.627c-1.646-0.769-3.773-1.645-6.385-2.628c-3.627-1.32-6.615-2.673-8.967-4.056
	c-2.351-1.384-4.218-3.089-5.601-5.117c-1.383-2.029-2.074-4.502-2.074-7.422c0-4.641,1.706-8.505,5.117-11.594
	c3.412-3.088,8.282-4.633,14.613-4.633c3.228,0,6.408,0.338,9.543,1.015c1.259,0.246,2.042,0.368,2.351,0.368
	c0.922,0,1.844-0.308,2.767-0.922l0.368-0.185c0.245,0,0.554,0.062,0.922,0.185c-0.092,0.707-0.178,1.406-0.254,2.097
	c-0.076,0.691-0.153,1.452-0.23,2.282c-0.077,0.829-0.131,1.476-0.161,1.937c-0.031,0.461-0.063,0.769-0.093,0.922
	c0.398,3.719,0.584,5.747,0.554,6.085l-1.383,0.093c-0.246-3.135-1.276-5.602-3.089-7.399c-1.813-1.798-3.857-3.019-6.13-3.665
	c-2.275-0.646-4.458-0.968-6.547-0.968c-5.103,0-8.475,1.33-10.119,3.987c-1.644,2.658-2.466,5.17-2.466,7.537
	c0,2.489,0.614,4.557,1.845,6.199c1.229,1.645,2.758,2.934,4.586,3.868c1.827,0.933,4.402,2.043,7.721,3.328
	c3.749,1.469,6.761,2.827,9.035,4.072c2.274,1.246,4.302,3.045,6.086,5.398c1.781,2.354,2.673,5.268,2.673,8.743
	c0,2.952-0.769,5.613-2.305,7.981s-3.842,4.244-6.915,5.628c-3.074,1.385-6.838,2.076-11.294,2.076c-4.332,0-8.836-0.63-13.506-1.89
	c-0.83-0.186-1.337-0.276-1.521-0.276C622.509,331.144,622.201,331.682,622.385,332.758z"/>
<path id="letter-L" d="M298.861,274.905v-1.613c3.872,0.031,6.408,0.063,7.606,0.093c1.198,0.031,2.197,0.062,2.996,0.092
	c5.163,0,8.558-0.061,10.188-0.185l-0.092,1.798c-2.12,0.185-3.704,0.438-4.749,0.761c-1.045,0.322-1.798,1.006-2.259,2.051
	c-0.276,0.676-0.477,2.366-0.6,5.07c-0.123,2.705-0.229,6.177-0.322,10.418c-0.123,4.764-0.215,9.082-0.276,12.953
	c-0.062,3.872-0.092,7.715-0.092,11.525c0,3.473,0.092,6.039,0.276,7.698c0.184,1.659,0.49,2.704,0.922,3.135
	c0.521,0.399,1.39,0.69,2.604,0.875c1.214,0.186,3.804,0.276,7.768,0.276c4.364,0,8.015-0.354,10.949-1.061s5.14-1.459,6.614-2.259
	c1.967-1.198,3.319-3.242,4.057-6.13l1.521,0.185c-0.185,1.261-0.6,3.15-1.244,5.67c-0.646,2.521-1.399,4.811-2.259,6.869
	c-2.644-0.308-4.749-0.461-6.315-0.461c-0.953-0.031-1.837-0.055-2.65-0.069c-0.814-0.016-1.76-0.023-2.835-0.023h-32.361
	l-0.093-1.429c1.801-0.369,3.112-0.769,3.937-1.198c0.823-0.43,1.44-1.175,1.853-2.235s0.679-2.651,0.803-4.771
	c0.122-2.12,0.185-5.178,0.185-9.173l0.093-20.283c0.061-4.579,0.061-8.052,0-10.418c-0.063-2.366-0.276-4.126-0.646-5.278
	c-0.369-1.151-0.953-1.905-1.751-2.259C301.888,275.173,300.614,274.967,298.861,274.905z"/>
<path id="letter-A" d="M396.857,332.758v-1.522c1.413-0.245,2.543-0.568,3.389-0.968c0.845-0.398,1.268-1.075,1.268-2.028
	c0-0.892-0.276-2.182-0.83-3.872c-0.552-1.69-0.966-2.858-1.243-3.503l-3.407-9.267c-1.785-0.246-4.697-0.368-8.731-0.368h-3.65
	c-3.666-0.123-6.884,0.062-9.656,0.553l-3.386,8.528c-1.494,3.565-2.241,5.793-2.241,6.684c0,1.076,0.483,1.975,1.452,2.697
	c0.968,0.722,2.942,1.298,5.924,1.729v1.521c-3.596-0.43-6.654-0.646-9.174-0.646c-2.581,0-5.379,0.124-8.391,0.369v-1.337
	c1.844-0.461,3.257-1.183,4.241-2.166c0.737-0.646,1.714-2.175,2.929-4.587c1.215-2.413,2.445-5.04,3.691-7.884
	c1.245-2.842,2.145-5.063,2.699-6.66l7.382-17.655c0.923-2.12,1.868-4.341,2.839-6.661c0.969-2.32,1.883-4.648,2.744-6.984
	c0.861-2.335,1.492-4.21,1.893-5.624c0-0.399,0.093-0.691,0.276-0.876l1.528-0.093c0.951,3.411,1.995,6.685,3.132,9.818
	l9.672,25.954c2.487,6.484,4.368,11.271,5.642,14.358c1.275,3.089,2.387,5.294,3.338,6.615c0.798,1.137,2.439,1.829,4.925,2.074
	v1.612c-2.521-0.246-4.949-0.368-7.284-0.368c-1.844,0-3.557,0.046-5.14,0.139c-1.583,0.092-2.836,0.177-3.758,0.253
	S397.318,332.727,396.857,332.758z M382.268,291.223l-5.206,13.414c-0.707,1.905-1.184,3.104-1.429,3.596
	c2.334,0.368,5.021,0.553,8.059,0.553l4.236-0.092c2.548,0,4.835-0.062,6.86-0.185c-1.073-3.135-1.764-4.994-2.071-5.578
	l-3.313-8.482c-0.369-0.922-1.067-2.596-2.095-5.024c-1.027-2.428-1.771-4.087-2.231-4.979c-0.583,1.291-1.083,2.467-1.497,3.526
	C383.167,289.031,382.729,290.117,382.268,291.223z"/>
</svg>
